<svg xmlns="http://www.w3.org/2000/svg" version="1.1" xmlns:xlink="http://www.w3.org/1999/xlink" xmlns:svgjs="http://svgjs.dev/svgjs" viewBox="0 0 800 800"><defs><linearGradient x1="50%" y1="0%" x2="50%" y2="100%" id="nnneon-grad"><stop stop-color="hsl(179, 76%, 49%)" stop-opacity="1" offset="0%"></stop><stop stop-color="hsl(353, 2%, 99%)" stop-opacity="1" offset="100%"></stop></linearGradient><filter id="nnneon-filter" x="-100%" y="-100%" width="400%" height="400%" filterUnits="objectBoundingBox" primitiveUnits="userSpaceOnUse" color-interpolation-filters="sRGB">
	<feGaussianBlur stdDeviation="20 15" x="0%" y="0%" width="100%" height="100%" in="SourceGraphic" edgeMode="none" result="blur"></feGaussianBlur></filter><filter id="nnneon-filter2" x="-100%" y="-100%" width="400%" height="400%" filterUnits="objectBoundingBox" primitiveUnits="userSpaceOnUse" color-interpolation-filters="sRGB">
	<feGaussianBlur stdDeviation="10 17" x="0%" y="0%" width="100%" height="100%" in="SourceGraphic" edgeMode="none" result="blur"></feGaussianBlur></filter></defs><g stroke-width="44" stroke="url(#nnneon-grad)" fill="none"><path d="M380.8705030129006 124.10078690092877C392.70784519065637 117.2677251266974 407.29218532692175 117.2677251266974 419.1295275046775 124.10269985215336L629.3705188918902 245.48519390598943C641.207861069646 252.31825568022083 648.5000311377787 264.94947261618097 648.5000311377787 278.6175091158684V521.3824972235406C648.5000311377787 535.050533723228 641.207861069646 547.6817506591881 629.3705188918902 554.516725384644L419.1295275046775 675.8992194384801C407.29218532692175 682.7322812127115 392.70784519065637 682.7322812127115 380.8705030129006 675.8973064872556L170.62951162568788 554.5148124334195C158.7921694479321 547.6817506591881 151.49999937979942 535.050533723228 151.49999937979942 521.3824972235406V278.6175091158684C151.49999937979942 264.94947261618097 158.7921694479321 252.31825568022083 170.62951162568788 245.48328095476495L380.8705030129006 124.10078690092877Z " filter="url(#nnneon-filter)"></path><path d="M489.8705030129006 124.10078690092877C501.70784519065637 117.2677251266974 516.2921853269218 117.2677251266974 528.1295275046775 124.10269985215336L738.3705188918902 245.48519390598943C750.207861069646 252.31825568022083 757.5000311377787 264.94947261618097 757.5000311377787 278.6175091158684V521.3824972235406C757.5000311377787 535.050533723228 750.207861069646 547.6817506591881 738.3705188918902 554.516725384644L528.1295275046775 675.8992194384801C516.2921853269218 682.7322812127115 501.70784519065637 682.7322812127115 489.8705030129006 675.8973064872556L279.6295116256879 554.5148124334195C267.7921694479321 547.6817506591881 260.4999993797994 535.050533723228 260.4999993797994 521.3824972235406V278.6175091158684C260.4999993797994 264.94947261618097 267.7921694479321 252.31825568022083 279.6295116256879 245.48328095476495L489.8705030129006 124.10078690092877Z " filter="url(#nnneon-filter2)" opacity="0.32"></path><path d="M271.8705030129006 124.10078690092877C283.70784519065637 117.2677251266974 298.29218532692175 117.2677251266974 310.1295275046775 124.10269985215336L520.3705188918902 245.48519390598943C532.207861069646 252.31825568022083 539.5000311377787 264.94947261618097 539.5000311377787 278.6175091158684V521.3824972235406C539.5000311377787 535.050533723228 532.207861069646 547.6817506591881 520.3705188918902 554.516725384644L310.1295275046775 675.8992194384801C298.29218532692175 682.7322812127115 283.70784519065637 682.7322812127115 271.8705030129006 675.8973064872556L61.62951162568788 554.5148124334195C49.79216944793211 547.6817506591881 42.49999937979942 535.050533723228 42.49999937979942 521.3824972235406V278.6175091158684C42.49999937979942 264.94947261618097 49.79216944793211 252.31825568022083 61.62951162568788 245.48328095476495L271.8705030129006 124.10078690092877Z " filter="url(#nnneon-filter2)" opacity="0.32"></path><path d="M380.8705030129006 124.10078690092877C392.70784519065637 117.2677251266974 407.29218532692175 117.2677251266974 419.1295275046775 124.10269985215336L629.3705188918902 245.48519390598943C641.207861069646 252.31825568022083 648.5000311377787 264.94947261618097 648.5000311377787 278.6175091158684V521.3824972235406C648.5000311377787 535.050533723228 641.207861069646 547.6817506591881 629.3705188918902 554.516725384644L419.1295275046775 675.8992194384801C407.29218532692175 682.7322812127115 392.70784519065637 682.7322812127115 380.8705030129006 675.8973064872556L170.62951162568788 554.5148124334195C158.7921694479321 547.6817506591881 151.49999937979942 535.050533723228 151.49999937979942 521.3824972235406V278.6175091158684C151.49999937979942 264.94947261618097 158.7921694479321 252.31825568022083 170.62951162568788 245.48328095476495L380.8705030129006 124.10078690092877Z "></path></g></svg>
